<svg xmlns="http://www.w3.org/2000/svg" xmlns:xlink="http://www.w3.org/1999/xlink" version="1.1" width="256" height="256" viewBox="0 0 256 256" xml:space="preserve">
<desc>Created with Fabric.js 1.7.22</desc>
<defs>
</defs>
<g transform="translate(128 128) scale(0.72 0.72)" style="">
	<g style="stroke: none; stroke-width: 0; stroke-dasharray: none; stroke-linecap: butt; stroke-linejoin: miter; stroke-miterlimit: 10; fill: none; fill-rule: nonzero; opacity: 1;" transform="translate(-175.05 -175.05000000000004) scale(3.89 3.89)" >
	<circle cx="45" cy="45" r="45" style="stroke: none; stroke-width: 1; stroke-dasharray: none; stroke-linecap: butt; stroke-linejoin: miter; stroke-miterlimit: 10; fill: rgb(32,196,203); fill-rule: nonzero; opacity: 1;" transform="  matrix(1 0 0 1 0 0) "/>
	<path d="M 63.696 31.042 h -5.154 v 10.643 c 0 1.142 -0.934 2.077 -2.077 2.077 H 27.262 c -1.142 0 -2.077 -0.934 -2.077 -2.077 V 31.042 h -5.154 c -1.77 0 -3.217 1.448 -3.217 3.217 v 27.83 c 0 1.77 1.448 3.217 3.217 3.217 h 5.154 V 54.664 c 0 -1.142 0.934 -2.077 2.077 -2.077 h 29.203 c 1.142 0 2.077 0.935 2.077 2.077 v 10.643 h 5.154 c 1.77 0 3.217 -1.448 3.217 -3.217 v -27.83 C 66.913 32.49 65.465 31.042 63.696 31.042 z" style="stroke: none; stroke-width: 1; stroke-dasharray: none; stroke-linecap: butt; stroke-linejoin: miter; stroke-miterlimit: 10; fill: rgb(27,167,173); fill-rule: nonzero; opacity: 1;" transform=" matrix(1 0 0 1 0 0) " stroke-linecap="round" />
	<path d="M 54.418 55.563 H 29.309 c -0.747 0 -1.358 0.611 -1.358 1.358 v 18.505 c 0 0.747 0.611 1.358 1.358 1.358 h 25.109 c 0.747 0 1.358 -0.611 1.358 -1.358 V 56.921 C 55.776 56.174 55.165 55.563 54.418 55.563 z M 30.896 63.023 h 10.568 v 2.66 H 30.896 V 63.023 z M 52.831 70.886 H 30.896 v -2.66 h 21.934 V 70.886 z" style="stroke: none; stroke-width: 1; stroke-dasharray: none; stroke-linecap: butt; stroke-linejoin: miter; stroke-miterlimit: 10; fill: rgb(27,167,173); fill-rule: nonzero; opacity: 1;" transform=" matrix(1 0 0 1 0 0) " stroke-linecap="round" />
	<path d="M 51.204 20.057 H 29.269 c -0.725 0 -1.318 0.593 -1.318 1.318 v 18.585 c 0 0.725 0.593 1.318 1.318 1.318 h 25.189 c 0.725 0 1.318 -0.593 1.318 -1.318 V 24.585 L 51.204 20.057 z M 51.707 25.032 c -0.519 0 -0.944 -0.425 -0.944 -0.944 v -2.298 l 3.273 3.241 H 51.707 z" style="stroke: none; stroke-width: 1; stroke-dasharray: none; stroke-linecap: butt; stroke-linejoin: miter; stroke-miterlimit: 10; fill: rgb(27,167,173); fill-rule: nonzero; opacity: 1;" transform=" matrix(1 0 0 1 0 0) " stroke-linecap="round" />
	<path d="M 66.968 27.769 h -5.154 v 10.643 c 0 1.142 -0.934 2.077 -2.077 2.077 H 30.535 c -1.142 0 -2.077 -0.934 -2.077 -2.077 V 27.769 h -5.154 c -1.77 0 -3.217 1.448 -3.217 3.217 v 27.83 c 0 1.77 1.448 3.217 3.217 3.217 h 5.154 V 51.391 c 0 -1.142 0.934 -2.077 2.077 -2.077 h 29.203 c 1.142 0 2.077 0.935 2.077 2.077 v 10.643 h 5.154 c 1.77 0 3.217 -1.448 3.217 -3.217 v -27.83 C 70.186 29.217 68.738 27.769 66.968 27.769 z" style="stroke: none; stroke-width: 1; stroke-dasharray: none; stroke-linecap: butt; stroke-linejoin: miter; stroke-miterlimit: 10; fill: rgb(255,255,255); fill-rule: nonzero; opacity: 1;" transform=" matrix(1 0 0 1 0 0) " stroke-linecap="round" />
	<path d="M 57.691 52.29 H 32.582 c -0.747 0 -1.358 0.611 -1.358 1.358 v 18.505 c 0 0.747 0.611 1.358 1.358 1.358 h 25.109 c 0.747 0 1.358 -0.611 1.358 -1.358 V 53.648 C 59.049 52.901 58.438 52.29 57.691 52.29 z M 34.169 59.751 h 10.568 v 2.66 H 34.169 V 59.751 z M 56.104 67.613 H 34.169 v -2.66 h 21.934 V 67.613 z" style="stroke: none; stroke-width: 1; stroke-dasharray: none; stroke-linecap: butt; stroke-linejoin: miter; stroke-miterlimit: 10; fill: rgb(255,255,255); fill-rule: nonzero; opacity: 1;" transform=" matrix(1 0 0 1 0 0) " stroke-linecap="round" />
	<path d="M 54.477 16.784 H 32.542 c -0.725 0 -1.318 0.593 -1.318 1.318 v 18.585 c 0 0.725 0.593 1.318 1.318 1.318 h 25.189 c 0.725 0 1.318 -0.593 1.318 -1.318 V 21.312 L 54.477 16.784 z M 54.979 21.76 c -0.519 0 -0.944 -0.425 -0.944 -0.944 v -2.298 l 3.273 3.241 H 54.979 z" style="stroke: none; stroke-width: 1; stroke-dasharray: none; stroke-linecap: butt; stroke-linejoin: miter; stroke-miterlimit: 10; fill: rgb(255,255,255); fill-rule: nonzero; opacity: 1;" transform=" matrix(1 0 0 1 0 0) " stroke-linecap="round" />
</g>
</g>
</svg>